<svg id="eIcePCQBdWG1" xmlns="http://www.w3.org/2000/svg" xmlns:xlink="http://www.w3.org/1999/xlink" viewBox="0 0 300 300" shape-rendering="geometricPrecision" text-rendering="geometricPrecision"><defs><filter id="eIcePCQBdWG11-filter" x="-150%" width="400%" y="-150%" height="400%"><feComponentTransfer id="eIcePCQBdWG11-filter-invert-0" result="result"><feFuncR id="eIcePCQBdWG11-filter-invert-0-R" type="table" tableValues="0.38 0.62"/><feFuncG id="eIcePCQBdWG11-filter-invert-0-G" type="table" tableValues="0.38 0.62"/><feFuncB id="eIcePCQBdWG11-filter-invert-0-B" type="table" tableValues="0.38 0.62"/></feComponentTransfer></filter></defs><rect width="14.799154" height="172.656801" rx="0" ry="0" transform="translate(24.879009 72.414258)" fill="#90f151" stroke-width="0"/><rect width="14.799154" height="172.656801" rx="0" ry="0" transform="translate(75.75565 75.972152)" fill="#90f151" stroke-width="0"/><rect width="14.799154" height="172.656801" rx="0" ry="0" transform="translate(150.199582 70.089702)" fill="#90f151" stroke-width="0"/><rect width="116.983792" height="19.027484" rx="0" ry="0" transform="matrix(.77408-.633088 0.633088 0.77408 0 88.119376)" fill="#90f151" stroke-width="0"/><rect width="116.983792" height="19.027484" rx="0" ry="0" transform="matrix(.77408-.633088 0.633088 0.77408 152.148705 72.79482)" fill="#90f151" stroke-width="0"/><rect width="116.983792" height="19.027484" rx="0" ry="0" transform="matrix(.77408-.633088 0.633088 0.77408 152.148705 141.68931)" fill="#90f151" stroke-width="0"/><rect width="116.983792" height="19.027484" rx="0" ry="0" transform="matrix(-.018585-.999827 0.999827-.018585 152.17412 289.427235)" fill="#e351f1" stroke-width="0"/><rect width="116.983792" height="19.027484" rx="0" ry="0" transform="matrix(.927227 0.3745-.3745 0.927227 7.54958 227.974059)" fill="#90f151" stroke-width="0"/><ellipse rx="34.610283" ry="59.515075" transform="translate(108.894338 99.227584)" fill="#90f151" stroke-width="0"/><ellipse rx="34.610283" ry="59.515075" transform="translate(196.934206 199.185572)" filter="url(#eIcePCQBdWG11-filter)" fill="#90f151" stroke-width="0"/><ellipse rx="31.188841" ry="51.491261" transform="matrix(.189835-.19026 0.707897 0.706316 244.417123 119.387592)" fill="#3cdad2" stroke-width="0"/><ellipse rx="31.188841" ry="51.491261" transform="matrix(.249214 0.100641-.374454 0.927245 259.734545 200.88392)" fill="#3cdbd3" stroke-width="0"/><ellipse rx="31.188841" ry="51.491261" transform="matrix(-.132287-.101686-.609434 0.792837 240.45342 44.95687)" fill="#3cdbd3" stroke-width="0"/></svg>
